<svg xmlns="http://www.w3.org/2000/svg" viewBox="0 0 150 150"><defs><style>.cls-1{fill:#f9f9f9;}.cls-2{fill:#11a8f4;opacity:0.1;}.cls-3,.cls-5{fill:none;stroke-linecap:round;stroke-miterlimit:10;}.cls-3{stroke:#333;stroke-width:3px;}.cls-4{fill:#f9d814;}.cls-5{stroke:#fff;stroke-width:2px;}.cls-6{fill:#f9a832;opacity:0.6;}</style></defs><title>bingxiang</title><g id="图层_2" data-name="图层 2"><g id="图层_1-2" data-name="图层 1"><circle class="cls-1" cx="75" cy="75" r="75"/><path class="cls-2" d="M107.68,50.47h0a5,5,0,0,1,0-7.07l16.26-16.26a5,5,0,0,0,0-7.07h0a5,5,0,0,0-7.07,0L83.64,53.29a5,5,0,0,1-7.07,0h0a5,5,0,0,1,0-7.07L94.95,27.84a5,5,0,0,0,0-7.07h0a5,5,0,0,0-7.07,0L78.69,30a5,5,0,0,1-7.07,0h0a5,5,0,0,0-7.07,0L9.26,85.24a5,5,0,0,0,0,7.07h0a5,5,0,0,0,7.07,0l9.19-9.19a5,5,0,0,1,7.07,0h0a5,5,0,0,1,0,7.07L14.21,108.58a5,5,0,0,0,0,7.07h0a5,5,0,0,0,7.07,0L54.52,82.41a5,5,0,0,1,7.07,0h0a5,5,0,0,1,0,7.07L45.32,105.75a5,5,0,0,0,0,7.07h0a5,5,0,0,0,7.07,0l24-24a5,5,0,0,1,7.07,0h0a5,5,0,0,1,0,7.07L51.69,127.67a5,5,0,0,0,0,7.07h0a5,5,0,0,0,7.07,0L114,79.46a5,5,0,0,0,0-7.07h0a5,5,0,0,1,0-7.07l31.82-31.82a5,5,0,0,0,0-7.07h0a5,5,0,0,0-7.07,0l-24,24A5,5,0,0,1,107.68,50.47Z"/><path class="cls-3" d="M50,90V45A10,10,0,0,1,60,35H83.25"/><rect class="cls-4" x="52.5" y="37.5" width="48" height="78" rx="12" ry="12"/><path class="cls-3" d="M100,95.75V105a10,10,0,0,1-10,10H60a10,10,0,0,1-10-10V97"/><line class="cls-3" x1="100" y1="85.5" x2="100" y2="88.5"/><path class="cls-3" d="M90,35a10,10,0,0,1,10,10V80"/><line class="cls-3" x1="87.75" y1="67" x2="100" y2="67"/><line class="cls-3" x1="50" y1="67" x2="81.25" y2="67"/><line class="cls-3" x1="60" y1="49" x2="60" y2="56"/><line class="cls-3" x1="60" y1="80" x2="60" y2="91"/><path class="cls-5" d="M64.25,39.71a12.06,12.06,0,0,1,2.25-.21"/><path class="cls-5" d="M54.5,51.5a12,12,0,0,1,5.82-10.29"/><path class="cls-6" d="M90.86,112h-7a1.09,1.09,0,0,1-.67-2s4.93-1,7.27-2.78a17.93,17.93,0,0,0,4.11-5,1.09,1.09,0,0,1,1.76.87v3.41A5.51,5.51,0,0,1,90.86,112Z"/></g></g></svg>