<svg xmlns="http://www.w3.org/2000/svg" viewBox="0 0 150 150"><defs><style>.cls-1{fill:#f9f9f9;}.cls-2{fill:#11a8f4;opacity:0.1;}.cls-3,.cls-6,.cls-8{fill:none;stroke-linecap:round;stroke-miterlimit:10;}.cls-3{stroke:#000502;}.cls-3,.cls-6{stroke-width:3px;}.cls-4{fill:#f9d814;}.cls-5{fill:#f9a832;opacity:0.6;}.cls-6{stroke:#333;}.cls-7{font-size:24px;fill:#000502;font-family:ArialRoundedMTBold, Arial Rounded MT Bold;}.cls-8{stroke:#fff;stroke-width:2px;}</style></defs><title>dianshi</title><g id="图层_2" data-name="图层 2"><g id="图层_1-2" data-name="图层 1"><circle class="cls-1" cx="75" cy="75" r="75"/><path class="cls-2" d="M136.54,16h0a5,5,0,0,0-7.07,0L116.74,28.68a5,5,0,0,1-7.07,0h0a5,5,0,0,1,0-7.07L116,15.25a5,5,0,0,0,0-7.07h0a5,5,0,0,0-7.07,0L88.46,28.68a5,5,0,0,1-7.07,0h0a5,5,0,0,0-7.07,0L10.68,92.32a5,5,0,0,0,0,7.07h0a5,5,0,0,0,7.07,0L38.26,78.89a5,5,0,0,1,7.07,0h0a5,5,0,0,1,0,7.07L39,92.32a5,5,0,0,0,0,7.07h0a5,5,0,0,0,7.07,0L58.76,86.67a5,5,0,0,1,7.07,0h0a5,5,0,0,1,0,7.07L25.53,134a5,5,0,0,0,0,7.07h0a5,5,0,0,0,7.07,0l33.23-33.23a5,5,0,0,1,7.07,0h0a5,5,0,0,1,0,7.07L55.23,132.63a5,5,0,0,0,0,7.07h0a5,5,0,0,0,7.07,0l63.64-63.64a5,5,0,0,0,0-7.07h0a5,5,0,0,1,0-7.07l17.68-17.68a5,5,0,0,0,0-7.07h0a5,5,0,0,0-7.07,0L103.31,70.4a5,5,0,0,1-7.07,0h0a5,5,0,0,1,0-7.07L136.54,23A5,5,0,0,0,136.54,16Z"/><line class="cls-3" x1="56.88" y1="43" x2="63" y2="43"/><line class="cls-3" x1="87.05" y1="114" x2="87.2" y2="114"/><line class="cls-3" x1="63" y1="114" x2="82" y2="114"/><rect class="cls-4" x="34" y="47" width="87" height="57" rx="12" ry="12"/><path class="cls-5" d="M106.63,99H94.74a1.86,1.86,0,0,1-1.14-3.34s8.4-1.74,12.4-4.74,7-8.58,7-8.58a1.86,1.86,0,0,1,3,1.48v5.81A9.39,9.39,0,0,1,106.63,99Z"/><path class="cls-6" d="M49.25,103H40A10,10,0,0,1,30,93V53A10,10,0,0,1,40,43h7.38"/><path class="cls-3" d="M68.75,43H110a10,10,0,0,1,10,10V93a10,10,0,0,1-10,10H56.88"/><text class="cls-7" transform="translate(60.9 83.37)">TV</text><path class="cls-8" d="M46.25,49.71a12.06,12.06,0,0,1,2.25-.21"/><path class="cls-8" d="M36.5,61.5a12,12,0,0,1,5.82-10.29"/></g></g></svg>