<?xml version="1.0" encoding="utf-8"?>
<!-- Generator: Adobe Illustrator 21.0.2, SVG Export Plug-In . SVG Version: 6.00 Build 0)  -->
<svg version="1.1" id="图层_1" xmlns="http://www.w3.org/2000/svg" xmlns:xlink="http://www.w3.org/1999/xlink" x="0px" y="0px"
	 width="512px" height="512px" viewBox="0 0 512 512" style="enable-background:new 0 0 512 512;" xml:space="preserve">
<style type="text/css">
	.st0{fill:none;stroke:#333333;stroke-width:8.96;stroke-linecap:round;stroke-miterlimit:10;}
	.st1{fill:#F9D814;}
	.st2{fill:none;stroke:#333333;stroke-width:8.96;stroke-miterlimit:10;}
	.st3{fill:none;}
</style>
<g>
	<g>
		<line class="st0" x1="36.8" y1="480" x2="47" y2="480"/>
		<line class="st0" x1="65.6" y1="480.6" x2="194.2" y2="480.6"/>
		<line class="st0" x1="216" y1="480.6" x2="223.7" y2="480.6"/>
		<line class="st0" x1="244.2" y1="480.6" x2="445.1" y2="480.6"/>
		<line class="st0" x1="504" y1="480.6" x2="509.8" y2="480.6"/>
		<line class="st0" x1="465" y1="480.6" x2="484.2" y2="480.6"/>
		<line class="st0" x1="25.3" y1="318.1" x2="140.5" y2="318.1"/>
		<line class="st0" x1="84.2" y1="269.4" x2="150.1" y2="269.4"/>
		<line class="st0" x1="54.7" y1="218.2" x2="158.4" y2="218.2"/>
		<polyline class="st0" points="82.9,177.9 365.8,177.9 365.8,361 81.6,361 		"/>
		<path class="st1" d="M499.5,293.8l-51.2-51.2h-69.1v131.8H142.4v52.5h21.8c1,19.3,16.9,34.6,36.4,34.6s35.4-15.3,36.4-34.6h160.7
			c0.7,19.6,16.7,35.2,36.4,35.2s35.8-15.6,36.4-35.2h28.8V293.8z"/>
		<polyline class="st2" points="365.8,241.3 427.2,241.3 485.1,299.2 485.1,414.7 464.3,414.7 		"/>
		<polygon class="st2" points="390.7,264.3 417.6,264.3 464.3,311 464.3,339.8 390.7,339.8 		"/>
		<line class="st0" x1="485.1" y1="361" x2="459.8" y2="361"/>
		<line class="st2" x1="391.4" y1="414.1" x2="231.4" y2="414.1"/>
		<polyline class="st2" points="133.2,361 133.2,414.1 156.5,414.1 		"/>
		<circle class="st2" cx="194.9" cy="415.4" r="36.5"/>
		<circle class="st2" cx="194.9" cy="415.4" r="14.1"/>
		<circle class="st2" cx="427.8" cy="414.1" r="36.5"/>
		<circle class="st2" cx="427.8" cy="414.1" r="14.1"/>
		<circle class="st1" cx="431" cy="169" r="11.5"/>
		<path class="st0" d="M434.2,164.5c0,5.7-4.6,10.2-10.2,10.2s-10.2-4.6-10.2-10.2s4.6-10.2,10.2-10.2"/>
		<circle class="st1" cx="152" cy="116.5" r="11.5"/>
		<path class="st0" d="M145,103c5.7,0,10.2,4.6,10.2,10.2s-4.6,10.2-10.2,10.2s-10.2-4.6-10.2-10.2"/>
		<circle class="st1" cx="290.2" cy="49.9" r="11.5"/>
		<path class="st0" d="M298.6,41.6c0,5.7-4.6,10.2-10.2,10.2s-10.2-4.6-10.2-10.2s4.6-10.2,10.2-10.2"/>
		<g>
			<line class="st0" x1="2.2" y1="232.3" x2="9.9" y2="232.3"/>
			<line class="st0" x1="23.4" y1="232.3" x2="31" y2="232.3"/>
			<line class="st0" x1="17" y1="247.7" x2="17" y2="240"/>
			<line class="st0" x1="17" y1="224.6" x2="17" y2="217"/>
		</g>
		<g>
			<line class="st0" x1="259.5" y1="127.4" x2="267.2" y2="127.4"/>
			<line class="st0" x1="280.6" y1="127.4" x2="288.3" y2="127.4"/>
			<line class="st0" x1="274.2" y1="142.7" x2="274.2" y2="135"/>
			<line class="st0" x1="274.2" y1="119.7" x2="274.2" y2="112"/>
		</g>
		<path class="st0" d="M202.7,284.5c-1.3-4.4-2-9-2-13.8c0-19.9,12.1-36.9,29.3-44.2"/>
		<path class="st0" d="M285,302.1c-8.8,10.2-21.8,16.6-36.3,16.6c-14.9,0-28.2-6.8-37-17.5"/>
		<path class="st0" d="M253.5,223c24.2,2.5,43.1,22.9,43.1,47.8c0,6.1-1.2,12-3.3,17.4"/>
		<g>
			<line class="st0" x1="216" y1="221.2" x2="231.3" y2="222.4"/>
			<line class="st0" x1="230.1" y1="237.7" x2="231.3" y2="222.4"/>
		</g>
		<g>
			<line class="st0" x1="305.9" y1="283.2" x2="292.8" y2="291.1"/>
			<line class="st0" x1="284.8" y1="277.9" x2="292.8" y2="291.1"/>
		</g>
		<g>
			<line class="st0" x1="210.5" y1="315.7" x2="211.1" y2="300.3"/>
			<line class="st0" x1="226.4" y1="300.9" x2="211.1" y2="300.3"/>
		</g>
	</g>
	<rect class="st3" width="512" height="512"/>
</g>
</svg>
