<svg width="33" height="31" viewBox="0 0 33 31" xmlns="http://www.w3.org/2000/svg"><title>Shape</title><path d="M30.6 2.1c0-1.1-1-2.1-2.1-2.1h-24c-1.1 0-2 1-2.1 2.1l-1.6 25C.6 29.3 2.3 31 4.5 31h24c2.2 0 3.9-1.7 3.7-3.9l-1.6-25zm-5.9 6.1c-.2 4.6-3.7 8.2-8.3 8.2-4.6 0-8.2-3.7-8.4-8.3-.3-.2-.5-.6-.5-1 0-.7.6-1.2 1.3-1.2.7 0 1.3.6 1.3 1.2 0 .5-.3.9-.7 1.1.2 3.8 3.2 6.8 7.1 6.8 3.9 0 6.8-3.1 7-6.9-.4-.2-.6-.6-.6-1.1 0-.7.6-1.2 1.3-1.2.7 0 1.3.6 1.3 1.2-.2.6-.4 1-.8 1.2z" fill-rule="nonzero" fill="#FC7B53"/></svg>