<svg xmlns="http://www.w3.org/2000/svg" viewBox="0 0 550.03 542.5">
  <defs>
    <style>
      .cls-1{fill:#fc7b53;}
    </style>
  </defs>
  <title>
    资源 1
  </title>
  <g id="图层_2" data-name="图层 2">
    <path class="cls-1" d="M521.78 36.75C521.78 17.5 504.28 0 485 0H65C45.78 0 30 17.5 28.28 36.75l-28 437.5c-3.5 38.5 26.25 68.25 64.72 68.25h420c38.5 0 68.25-29.75 64.75-68.25l-28-437.5zM418.53 143.5C415 224 353.78 287 273.28 287s-143.5-64.75-147-145.25c-5.25-3.5-8.75-10.5-8.75-17.5 0-12.25 10.5-21 22.75-21s22.75 10.5 22.75 21a21.52 21.52 0 0 1-12.25 19.25c3.5 66.5 56 119 124.25 119s119-54.25 122.5-120.75c-7-3.5-10.5-10.5-10.5-19.25 0-12.25 10.5-21 22.75-21s22.75 10.5 22.75 21c-3.53 10.5-7 17.5-14 21z" id="图层_1-2" data-name="图层 1"/>
  </g>
</svg>
