<svg xmlns="http://www.w3.org/2000/svg" viewBox="0 0 150 150"><defs><style>.cls-1{fill:#f9f9f9;}.cls-2{fill:#11a8f4;opacity:0.1;}.cls-3{fill:#f9d814;}.cls-4,.cls-5,.cls-7{fill:none;stroke-linecap:round;stroke-miterlimit:10;}.cls-4,.cls-5{stroke:#333;}.cls-4{stroke-width:3px;}.cls-5,.cls-7{stroke-width:2px;}.cls-6{fill:#f9a832;opacity:0.6;}.cls-7{stroke:#fff;}</style></defs><title>kongtiao</title><g id="图层_2" data-name="图层 2"><g id="图层_1-2" data-name="图层 1"><circle class="cls-1" cx="75" cy="75" r="75"/><path class="cls-2" d="M100,72.63h0a5,5,0,0,1,0-7.07l16.26-16.26a5,5,0,0,0,0-7.07h0a5,5,0,0,0-7.07,0L87.29,64.14a5,5,0,0,1-7.07,0h0a5,5,0,0,1,0-7.07L116.28,21a5,5,0,0,0,0-7.07h0a5,5,0,0,0-7.07,0L84.46,38.68a5,5,0,0,1-7.07,0h0a5,5,0,0,0-7.07,0L21.53,87.47a5,5,0,0,0,0,7.07h0a5,5,0,0,0,7.07,0L42,81.11a5,5,0,0,1,7.07,0h0a5,5,0,0,1,0,7.07l-39.6,39.6a5,5,0,0,0,0,7.07h0a5,5,0,0,0,7.07,0L47,104.45a5,5,0,0,1,7.07,0h0a5,5,0,0,1,0,7.07l-19.8,19.8a5,5,0,0,0,0,7.07h0a5,5,0,0,0,7.07,0L78.1,101.62a5,5,0,0,1,7.07,0h0a5,5,0,0,1,0,7.07L66.78,127.07a5,5,0,0,0,0,7.07h0a5,5,0,0,0,7.07,0L118.4,89.6a5,5,0,0,0,0-7.07h0a5,5,0,0,1,0-7.07l26.16-26.16a5,5,0,0,0,0-7.07h0a5,5,0,0,0-7.07,0L107.09,72.63A5,5,0,0,1,100,72.63Z"/><rect class="cls-3" x="29" y="53" width="97" height="47" rx="10" ry="10"/><path class="cls-4" d="M25.44,61.83V60a10,10,0,0,1,10-10H87.5"/><path class="cls-4" d="M44.5,100H35.44a10,10,0,0,1-10-10V65.67"/><line class="cls-4" x1="88.33" y1="100" x2="49.83" y2="100"/><line class="cls-4" x1="98.33" y1="100" x2="94.83" y2="100"/><path class="cls-4" d="M103,50h12.44a10,10,0,0,1,10,10V90a10,10,0,0,1-10,10H105.5"/><line class="cls-4" x1="93.67" y1="50" x2="96.58" y2="50"/><path class="cls-5" d="M89.81,60H79.5A2.5,2.5,0,0,1,77,57.5h0A2.5,2.5,0,0,1,79.5,55h16A2.5,2.5,0,0,1,98,57.5h0A2.5,2.5,0,0,1,95.5,60H93.67"/><path class="cls-5" d="M108,57.5a2.5,2.5,0,1,1-1.18-2.12"/><line class="cls-5" x1="98" y1="81" x2="116.44" y2="81"/><line class="cls-5" x1="85" y1="81" x2="93.67" y2="81"/><line class="cls-5" x1="34.44" y1="81" x2="78.83" y2="81"/><line class="cls-5" x1="102.33" y1="91" x2="103" y2="91"/><line class="cls-5" x1="94.83" y1="91" x2="98.33" y2="91"/><polyline class="cls-5" points="40.44 91 85.67 91 91 91"/><path class="cls-6" d="M116.5,97h-7a1.09,1.09,0,0,1-.67-2s4.93-1,7.27-2.78a17.93,17.93,0,0,0,4.11-5,1.09,1.09,0,0,1,1.76.87V91.5A5.51,5.51,0,0,1,116.5,97Z"/><path class="cls-7" d="M41.25,54.71a12.06,12.06,0,0,1,2.25-.21"/><path class="cls-7" d="M31.5,66.5a12,12,0,0,1,5.82-10.29"/></g></g></svg>