<svg id="图层_1" xmlns="http://www.w3.org/2000/svg" viewBox="0 0 700 1080"><style>.st0{fill:#FFFFFF;}</style><path class="st0" d="M4.4 129.2v821.6c0 71.1 58.2 129.2 130 129.2h431.2c72.3 0 130-57.8 130-129.2V129.2C695.6 58.1 637.4 0 565.6 0H134.4C62.1 0 4.4 57.8 4.4 129.2zM350 993.6c-23.9 0-43.2-19.3-43.2-43.2 0-23.9 19.3-43.2 43.2-43.2s43.2 19.3 43.2 43.2c0 23.9-19.3 43.2-43.2 43.2zM90.8 172.8h518.4V864H90.8V172.8z"/><path class="st0" d="M4.4 129.2v821.6c0 71.1 58.2 129.2 130 129.2h431.2c72.3 0 130-57.8 130-129.2V129.2C695.6 58.1 637.4 0 565.6 0H134.4C62.1 0 4.4 57.8 4.4 129.2zM350 993.6c-23.9 0-43.2-19.3-43.2-43.2 0-23.9 19.3-43.2 43.2-43.2s43.2 19.3 43.2 43.2c0 23.9-19.3 43.2-43.2 43.2zM90.8 172.8h518.4V864H90.8V172.8z"/></svg>