<?xml version="1.0" encoding="utf-8"?>
<!-- Generator: Adobe Illustrator 21.0.2, SVG Export Plug-In . SVG Version: 6.00 Build 0)  -->
<svg version="1.1" id="图层_1" xmlns="http://www.w3.org/2000/svg" xmlns:xlink="http://www.w3.org/1999/xlink" x="0px" y="0px"
	 width="512px" height="512px" viewBox="0 0 512 512" style="enable-background:new 0 0 512 512;" xml:space="preserve">
<style type="text/css">
	.st0{fill:#F9D814;}
	.st1{fill:none;stroke:#333333;stroke-width:7.68;stroke-miterlimit:10;}
	.st2{fill:none;stroke:#333333;stroke-width:5.12;stroke-miterlimit:10;}
	.st3{fill:none;stroke:#333333;stroke-width:6.4;stroke-miterlimit:10;}
	.st4{fill:none;stroke:#333333;stroke-width:10.24;stroke-miterlimit:10;}
	.st5{fill:none;stroke:#333333;stroke-width:10.24;stroke-linejoin:round;stroke-miterlimit:10;}
	.st6{fill:none;stroke:#333333;stroke-width:7.68;stroke-linecap:round;stroke-miterlimit:10;}
	.st7{fill:none;}
</style>
<g>
	<g>
		<g>
			<rect x="240" y="118" transform="matrix(0.7071 -0.7071 0.7071 0.7071 -21.5975 224.7347)" class="st0" width="41" height="41"/>
			
				<rect x="224" y="119.4" transform="matrix(0.7071 -0.7071 0.7071 0.7071 -24.9223 208.0853)" class="st1" width="29.4" height="29.4"/>
			<line class="st1" x1="259.8" y1="133.5" x2="290.6" y2="133.5"/>
			<line class="st1" x1="239.4" y1="113" x2="239.4" y2="81"/>
			<line class="st1" x1="239.4" y1="184.7" x2="239.4" y2="152.7"/>
			<line class="st1" x1="186.9" y1="134.8" x2="217.6" y2="134.8"/>
		</g>
		<g>
			
				<rect x="137.9" y="49.6" transform="matrix(0.7071 -0.7071 0.7071 0.7071 1.4564 121.3274)" class="st0" width="18.6" height="18.6"/>
			
				<rect x="129.7" y="50.1" transform="matrix(0.7071 -0.7071 0.7071 0.7071 -0.4321 113.6266)" class="st2" width="14.5" height="14.5"/>
			<line class="st3" x1="147.4" y1="57" x2="164.5" y2="57"/>
			<line class="st3" x1="137.3" y1="46.9" x2="137.3" y2="31.1"/>
			<line class="st3" x1="137.3" y1="82.3" x2="137.3" y2="66.5"/>
			<line class="st3" x1="111.4" y1="57.7" x2="126.5" y2="57.7"/>
		</g>
		<g>
			
				<rect x="32.8" y="202" transform="matrix(0.7071 -0.7071 0.7071 0.7071 -137.3945 92.4336)" class="st0" width="20.1" height="20.1"/>
			
				<rect x="20.2" y="204.2" transform="matrix(0.7071 -0.7071 0.7071 0.7071 -140.9257 80.1113)" class="st2" width="12" height="12"/>
			<line class="st2" x1="34.8" y1="209.9" x2="51.2" y2="209.9"/>
			<line class="st2" x1="26.5" y1="201.6" x2="26.5" y2="188.5"/>
			<line class="st2" x1="26.5" y1="230.8" x2="26.5" y2="217.7"/>
			<line class="st2" x1="5.1" y1="210.4" x2="17.6" y2="210.4"/>
		</g>
		<rect x="62.7" y="205.9" transform="matrix(0.866 -0.5 0.5 0.866 -99.8054 94.5878)" class="st4" width="127.7" height="55.3"/>
		<path class="st0" d="M126.7,360c0,0-24.4-0.3-34.5-0.3s-22.9,29.8,0,43.1l105.5,72.9c0,0,34.3,22.3,85.2-26.8h152.6
			c0,0,83.9-55,6.4-89.3h-69.9l-20.3-16.4h-37.9l2.3,34.2l-115-0.9h-51.2L126.7,360z"/>
		<path class="st4" d="M94.7,285.8c42.2,53.8,14.1,79.4,61.4,92.2c32,5.1,149.8,0,149.8,0s2.6-42.2-26.9-42.2s-66.6,0-66.6,0"/>
		<path class="st5" d="M122.9,354.9c0,0-39.7,0-49.9,0s-23,25.6,0,37.1l106.2,62.7c0,0,34.6,19.2,85.8-23h153.6
			c0,0,84.5-47.4,6.4-76.8h-70.4l-20.5-14.1H296"/>
		<path class="st5" d="M394.2,354.9l-56.3-56.3H226.6c0,0-48.6-47.4-43.5-64"/>
		<path class="st3" d="M258.6,376.7c0,0-1.3-23,12.8-23c14.1,0,17.9,0,17.9,0v21.8"/>
		<path class="st4" d="M81.9,397.2c0,0,15.4,6.4,48.6,6.4s52.5,0,52.5,0v49.9"/>
		<path class="st0" d="M445.4,151.4h-65.3c0,0,3.8-20.5-21.8-20.5v-20.5l60.2-35.8h81.9V136h-48.6
			C451.8,136,445.4,137.3,445.4,151.4z"/>
		<path class="st6" d="M201,449.6c0,0,35.8-34.6,58.9-34.6s87,0,87,0"/>
		<line class="st6" x1="326.4" y1="385.6" x2="423.7" y2="385.6"/>
		<path class="st6" d="M427.5,145h-65.3c0,0,3.8-20.5-21.8-20.5V104l60.2-35.8h81.9v55h-48.6C433.9,123.2,427.5,123.2,427.5,145z"/>
		<polyline class="st6" points="483.8,83.6 506.9,83.6 506.9,107.9 483.8,107.9 		"/>
		<line class="st4" x1="408.3" y1="86.1" x2="468.5" y2="86.1"/>
		<path class="st4" d="M433.9,123.2c0,0,11.5,34.6,52.5,55"/>
		<path class="st5" d="M331.5,294.8V188.5c0,0,0-12.8,15.4-12.8c15.4,0,94.7,0,94.7,0s14.1-2.6,14.1,14.1s0,57.6,0,57.6l48.6,43.5
			v83.2c0,0,2.6,20.5-32,20.5"/>
		<line class="st5" x1="357.1" y1="147.6" x2="357.1" y2="173.2"/>
		<line class="st5" x1="431.4" y1="147.6" x2="431.4" y2="173.2"/>
		<line class="st5" x1="357.1" y1="160.4" x2="431.4" y2="160.4"/>
		<line class="st5" x1="451.8" y1="201.3" x2="431.4" y2="201.3"/>
		<line class="st5" x1="453.1" y1="223.1" x2="431.4" y2="223.1"/>
		<line class="st5" x1="455.7" y1="243.9" x2="431.4" y2="243.9"/>
		<line class="st5" x1="331.5" y1="258" x2="468.5" y2="258"/>
	</g>
	<rect class="st7" width="512" height="512"/>
</g>
</svg>
