<svg id="图层_1" xmlns="http://www.w3.org/2000/svg" width="512" height="512" viewBox="0 0 512 512"><style>.st0{fill:#F9D814;} .st1{fill:none;stroke:#333333;stroke-width:7.68;stroke-miterlimit:10;} .st2{fill:none;stroke:#333333;stroke-width:5.12;stroke-miterlimit:10;} .st3{fill:none;stroke:#333333;stroke-width:6.4;stroke-miterlimit:10;} .st4{fill:none;stroke:#333333;stroke-width:10.24;stroke-miterlimit:10;} .st5{fill:none;stroke:#333333;stroke-width:10.24;stroke-linejoin:round;stroke-miterlimit:10;} .st6{fill:none;stroke:#333333;stroke-width:7.68;stroke-linecap:round;stroke-miterlimit:10;} .st7{fill:none;}</style><path class="st0" d="M231.544 138.47l28.99-28.993 28.992 28.991-28.99 28.992z"/><path class="st1" d="M217.896 134.123l20.79-20.79 20.787 20.79-20.788 20.788zM259.8 133.5h30.8M239.4 113V81M239.4 184.7v-32M186.9 134.8h30.7"/><path class="st0" d="M134.038 58.89l13.152-13.152 13.152 13.152-13.152 13.153z"/><path class="st2" d="M126.704 57.34l10.253-10.252L147.21 57.34l-10.253 10.254z"/><path class="st3" d="M147.4 57h17.1M137.3 46.9V31.1M137.3 82.3V66.5M111.4 57.7h15.1"/><path class="st0" d="M28.633 212.075l14.212-14.213 14.213 14.213-14.213 14.213z"/><path class="st2" d="M17.748 210.218l8.485-8.486 8.485 8.486-8.485 8.485zM34.8 209.9h16.4M26.5 201.6v-13.1M26.5 230.8v-13.1M5.1 210.4h12.5"/><path class="st4" d="M57.443 241.547l110.588-63.85 27.65 47.89-110.587 63.85z"/><path class="st0" d="M126.7 360s-24.4-.3-34.5-.3-22.9 29.8 0 43.1l105.5 72.9s34.3 22.3 85.2-26.8h152.6s83.9-55 6.4-89.3H372l-20.3-16.4h-37.9l2.3 34.2-115-.9h-51.2L126.7 360z"/><path class="st4" d="M94.7 285.8c42.2 53.8 14.1 79.4 61.4 92.2 32 5.1 149.8 0 149.8 0s2.6-42.2-26.9-42.2h-66.6"/><path class="st5" d="M122.9 354.9H73s-23 25.6 0 37.1l106.2 62.7s34.6 19.2 85.8-23h153.6s84.5-47.4 6.4-76.8h-70.4l-20.5-14.1H296"/><path class="st5" d="M394.2 354.9l-56.3-56.3H226.6s-48.6-47.4-43.5-64"/><path class="st3" d="M258.6 376.7s-1.3-23 12.8-23h17.9v21.8"/><path class="st4" d="M81.9 397.2s15.4 6.4 48.6 6.4H183v49.9"/><path class="st0" d="M445.4 151.4h-65.3s3.8-20.5-21.8-20.5v-20.5l60.2-35.8h81.9V136h-48.6s-6.4 1.3-6.4 15.4z"/><path class="st6" d="M201 449.6s35.8-34.6 58.9-34.6h87M326.4 385.6h97.3M427.5 145h-65.3s3.8-20.5-21.8-20.5V104l60.2-35.8h81.9v55h-48.6s-6.4 0-6.4 21.8zM483.8 83.6h23.1v24.3h-23.1"/><path class="st4" d="M408.3 86.1h60.2M433.9 123.2s11.5 34.6 52.5 55"/><path class="st5" d="M331.5 294.8V188.5s0-12.8 15.4-12.8h94.7s14.1-2.6 14.1 14.1v57.6l48.6 43.5v83.2s2.6 20.5-32 20.5M357.1 147.6v25.6M431.4 147.6v25.6M357.1 160.4h74.3M451.8 201.3h-20.4M453.1 223.1h-21.7M455.7 243.9h-24.3M331.5 258h137"/><path class="st7" d="M0 0h512v512H0z"/></svg>