<svg xmlns="http://www.w3.org/2000/svg" viewBox="0 0 150 150"><defs><style>.cls-1{fill:#f9f9f9;}.cls-2{fill:#11a8f4;opacity:0.1;}.cls-3{fill:#f9d814;}.cls-4,.cls-5,.cls-7{fill:none;stroke-linecap:round;stroke-miterlimit:10;}.cls-4,.cls-5{stroke:#333;}.cls-4{stroke-width:3px;}.cls-5,.cls-7{stroke-width:2px;}.cls-6{fill:#333;}.cls-7{stroke:#fff;}.cls-8{fill:#f9a832;}</style></defs><title>ranqizao</title><g id="图层_2" data-name="图层 2"><g id="图层_1-2" data-name="图层 1"><circle class="cls-1" cx="75" cy="75" r="75"/><path class="cls-2" d="M123.55 7.67a5 5 0 0 0-7.07 0L87.84 36.31a5 5 0 0 1-7.07 0 5 5 0 0 0-7.07 0L11.82 98.18a5 5 0 0 0 0 7.07 5 5 0 0 0 7.07 0l26.88-26.87a5 5 0 0 1 7.07 0 5 5 0 0 1 0 7.07l-17.68 17.68a5 5 0 0 0 0 7.07 5 5 0 0 0 7.07 0l6.36-6.36a5 5 0 0 1 7.07 0 5 5 0 0 1 0 7.07l-28.28 28.28a5 5 0 0 0 0 7.07 5 5 0 0 0 7.07 0l29.7-29.7a5 5 0 0 1 7.07 0 5 5 0 0 1 0 7.07l-12 12a5 5 0 0 0 0 7.07 5 5 0 0 0 7.07 0l50.2-50.2a5 5 0 0 0 0-7.07 5 5 0 0 1 0-7.07l25.46-25.46a5 5 0 0 0 0-7.07 5 5 0 0 0-7.07 0L88.19 92.52a5 5 0 0 1-7.07 0 5 5 0 0 1 0-7.07l36.77-36.77a5 5 0 0 0 0-7.07 5 5 0 0 0-7.07 0L88.19 64.24a5 5 0 0 1-7.07 0 5 5 0 0 1 0-7.07l42.43-42.43a5 5 0 0 0 0-7.07z"/><rect class="cls-3" x="34" y="55.5" width="86" height="42" rx="12" ry="12"/><path class="cls-4" d="M55.9 97.5H42.5a12 12 0 0 1-12-12v-21a12 12 0 0 1 12-12h42.75M86.25 97.5H61.12M97.13 97.5h-3.51M100.25 52.5h8.25a12 12 0 0 1 12 12v21a12 12 0 0 1-12 12h-7.25M91.13 52.5h2.49"/><path class="cls-5" d="M63.95 67.81A10 10 0 1 1 57 65M106.49 69.71a10 10 0 1 1-5.37-4.21M46 75h2M66 75h2M87 75h2M107 75h2M98 65.5v-2M98 86.5v-2M57 86.5v-2M57 65.5v-2"/><circle class="cls-6" cx="57.5" cy="92" r="1.5"/><circle class="cls-6" cx="98.5" cy="92" r="1.5"/><path class="cls-7" d="M46.25 58.21A12.06 12.06 0 0 1 48.5 58M36.5 70a12 12 0 0 1 5.82-10.29"/><path class="cls-8" d="M109.81 94.5h-5.28a1.09 1.09 0 0 1-.67-2s4.93-1 7.27-2.78a17.93 17.93 0 0 0 4.11-5 1.09 1.09 0 0 1 1.76.87v1.71a7.21 7.21 0 0 1-7.19 7.2z"/></g></g></svg>