<svg xmlns="http://www.w3.org/2000/svg" viewBox="0 0 150 150"><defs><style>.cls-1{fill:#f9f9f9;}.cls-2{fill:#11a8f4;opacity:0.1;}.cls-3{fill:#f9d814;}.cls-4,.cls-5,.cls-6{fill:none;stroke-linecap:round;}.cls-4,.cls-5{stroke:#333;}.cls-4,.cls-6{stroke-miterlimit:10;stroke-width:2px;}.cls-5{stroke-linejoin:round;stroke-width:3px;}.cls-6{stroke:#fff;}.cls-7{fill:#f9a832;opacity:0.6;}</style></defs><title>reshuiqi</title><g id="图层_2" data-name="图层 2"><g id="图层_1-2" data-name="图层 1"><circle class="cls-1" cx="75" cy="75" r="75"/><path class="cls-2" d="M103.55,51.09h0a5,5,0,0,1,0-7.07l4.24-4.24a5,5,0,0,0,0-7.07h0a5,5,0,0,0-7.07,0l-24,24a5,5,0,0,1-7.07,0h0a5,5,0,0,1,0-7.07l32.53-32.53a5,5,0,0,0,0-7.07h0a5,5,0,0,0-7.07,0l-9.55,9.55a5,5,0,0,1-7.07,0h0a5,5,0,0,0-7.07,0L7.74,83.26a5,5,0,0,0,0,7.07h0a5,5,0,0,0,7.07,0l23-23a5,5,0,0,1,7.07,0h0a5,5,0,0,1,0,7.07L7.39,111.9a5,5,0,0,0,0,7.07h0a5,5,0,0,0,7.07,0l24-24a5,5,0,0,1,7.07,0h0a5,5,0,0,1,0,7.07L32.84,114.73a5,5,0,0,0,0,7.07h0a5,5,0,0,0,7.07,0l29-29a5,5,0,0,1,7.07,0h0a5,5,0,0,1,0,7.07L40.62,135.24a5,5,0,0,0,0,7.07h0a5,5,0,0,0,7.07,0l63.64-63.64a5,5,0,0,0,0-7.07h0a5,5,0,0,1,0-7.07l35.36-35.36a5,5,0,0,0,0-7.07h0a5,5,0,0,0-7.07,0l-29,29A5,5,0,0,1,103.55,51.09Z"/><path class="cls-3" d="M32,76.5c0,8.94,3.94,17.14,10.47,23.5h69.06C118.06,93.64,122,85.44,122,76.5S118.06,59.36,111.53,53H42.47C35.94,59.36,32,67.56,32,76.5Z"/><path class="cls-4" d="M107.85,68.2A5,5,0,1,1,103,62"/><path class="cls-4" d="M108,67"/><path class="cls-4" d="M107.61,65.05a5,5,0,0,1,.18.5"/><line class="cls-5" x1="88.25" y1="50" x2="85" y2="50"/><path class="cls-5" d="M36.26,96.57A40.61,40.61,0,0,0,39.32,100h71.37c6.75-6.77,10.82-15.49,10.82-25s-4.07-18.23-10.82-25H96"/><path class="cls-5" d="M32.74,91.29q.31.57.65,1.13"/><path class="cls-5" d="M78.5,50H39.32C32.57,56.77,28.5,65.49,28.5,75a33.2,33.2,0,0,0,2,11.41"/><path class="cls-4" d="M80.5,99.5h-10a5,5,0,0,1-5-5h0a5,5,0,0,1,5-5h10a5,5,0,0,1,5,5h0a5,5,0,0,1-.5,2.17"/><path class="cls-6" d="M47.25,55.71a12.06,12.06,0,0,1,2.25-.21"/><path class="cls-6" d="M37,67.5c0-4.37,2.81-8.19,7-10.29"/><path class="cls-7" d="M112.61,94l2.15-6.24a1.06,1.06,0,0,0-1.58-1.21s-2.45,4.09-4.77,5.64-3.44,1.29-5.57,2.31-4.82,3.21,0,3.21C108.45,97.75,110.86,97.75,112.61,94Z"/></g></g></svg>