<svg id="图层_1" xmlns="http://www.w3.org/2000/svg" width="512" height="512" viewBox="0 0 512 512"><style>.st0{fill:#F9D814;} .st1{fill:none;stroke:#333333;stroke-width:10.24;stroke-miterlimit:10;} .st2{fill:none;stroke:#333333;stroke-width:6.4;stroke-miterlimit:10;} .st3{fill:#333333;} .st4{fill:none;stroke:#333333;stroke-width:7.68;stroke-miterlimit:10;} .st5{fill:none;stroke:#333333;stroke-width:8.96;stroke-miterlimit:10;} .st6{fill:none;stroke:#333333;stroke-width:3.84;stroke-miterlimit:10;} .st7{fill:none;stroke:#333333;stroke-width:3.84;stroke-linejoin:round;stroke-miterlimit:10;} .st8{fill:none;stroke:#333333;stroke-width:10.24;stroke-linejoin:round;stroke-miterlimit:10;} .st9{fill:none;}</style><path class="st0" d="M82.2 123.6H57.3l-12.5 21.7 12.5 21.6h24.9l12.5-21.6z"/><path class="st1" d="M357.4 312.8H166.2c-5.5 0-10-4.5-10-10V48.9c0-5.5 4.5-10 10-10h191.2c5.5 0 10 4.5 10 10v253.9c0 5.5-4.5 10-10 10z"/><circle class="st0" cx="274.6" cy="209.8" r="64"/><path class="st2" d="M339.3 117H186.8c-2.8 0-5-2.2-5-5V69.5c0-2.8 2.2-5 5-5h152.6c2.8 0 5 2.2 5 5V112c-.1 2.7-2.3 5-5.1 5z"/><circle class="st2" cx="259.8" cy="202.1" r="64"/><path class="st3" d="M247.4 104.2h-2c-1.9 0-3.5-1.6-3.5-3.5V80.8c0-1.9 1.6-3.5 3.5-3.5h2c1.9 0 3.5 1.6 3.5 3.5v19.9c0 1.9-1.6 3.5-3.5 3.5zM268 103.5h-2.2c-2.2 0-4-1.8-4-4v-4.8c0-2.2 1.8-4 4-4h2.2c2.2 0 4 1.8 4 4v4.8c0 2.2-1.8 4-4 4zM288.5 103.5h-2.2c-2.2 0-4-1.8-4-4V81.9c0-2.2 1.8-4 4-4h2.2c2.2 0 4 1.8 4 4v17.6c0 2.2-1.8 4-4 4zM311.5 103.5h-2.2c-2.2 0-4-1.8-4-4V81.9c0-2.2 1.8-4 4-4h2.2c2.2 0 4 1.8 4 4v17.6c0 2.2-1.8 4-4 4zM229.6 295.5h-27.8c-2.2 0-4-1.8-4-4v-2.2c0-2.2 1.8-4 4-4h27.8c2.2 0 4 1.8 4 4v2.2c0 2.2-1.8 4-4 4zM275.7 295.5h-27.8c-2.2 0-4-1.8-4-4v-2.2c0-2.2 1.8-4 4-4h27.8c2.2 0 4 1.8 4 4v2.2c0 2.2-1.8 4-4 4zM316.6 295.5h-27.8c-2.2 0-4-1.8-4-4v-2.2c0-2.2 1.8-4 4-4h27.8c2.2 0 4 1.8 4 4v2.2c0 2.2-1.8 4-4 4zM275.7 310.9h-2.2c-2.2 0-4 1.8-4 4V353c0 2.2 1.8 4 4 4h2.2c2.2 0 4-1.8 4-4v-38.1c0-2.2-1.8-4-4-4z"/><path class="st4" d="M235.5 236l-10.8-10.8c-2.5-2.5-2.5-6.6 0-9.1l52.4-52.4c2.5-2.5 6.6-2.5 9.1 0l10.8 10.8c2.5 2.5 2.5 6.6 0 9.1L244.5 236c-2.5 2.5-6.5 2.5-9 0z"/><path class="st1" d="M227.2 312.8v25c0 15.5 12.7 28.2 28.2 28.2h124.2c15.5 0 28.2-12.7 28.2-28.2v-119"/><path class="st1" d="M274.6 376.2c0 15.5 12.7 28.2 28.2 28.2h126.7c15.5 0 28.2-12.7 28.2-28.2V221.3"/><path class="st3" d="M269.4 365.9h10.2v11.5h-10.2zM408.8 165h-2.2c-2.2 0-4-1.8-4-4v-43.2c0-2.2 1.8-4 4-4h2.2c2.2 0 4 1.8 4 4V161c0 2.2-1.8 4-4 4zM458.7 165h-2.2c-2.2 0-4-1.8-4-4v-43.2c0-2.2 1.8-4 4-4h2.2c2.2 0 4 1.8 4 4V161c0 2.2-1.8 4-4 4z"/><path class="st5" d="M412.9 221.3h-12.4c-2.8 0-5-2.2-5-5v-47.6c0-2.8 2.2-5 5-5h12.4c2.8 0 5 2.2 5 5v47.6c0 2.7-2.2 5-5 5zM462.8 221.3h-12.4c-2.8 0-5-2.2-5-5v-47.6c0-2.8 2.2-5 5-5h12.4c2.8 0 5 2.2 5 5v47.6c0 2.7-2.2 5-5 5z"/><path class="st1" d="M68.2 121.1h-25l-12.5 21.6 12.5 21.6h25l12.5-21.6z"/><circle class="st6" cx="56.3" cy="142.6" r="10.2"/><circle class="st0" cx="476.8" cy="62.6" r="24.3"/><circle class="st1" cx="467.2" cy="54.3" r="24.3"/><path class="st7" d="M465.4 49.6l2.6-6 2.6 6 6.5-.7-3.9 5.2 3.9 5.2-6.5-.7-2.6 6-2.6-6-6.5.7 3.8-5.2-3.8-5.2z"/><path class="st0" d="M151.1 354.5l-19 19-.1 21.4 82.5 82.7c6 6 15.7 6 21.7 0l19-19c6-6 6-15.7 0-21.7l-82.4-82.4h-21.7z"/><path class="st8" d="M134.8 354.5l-19 19-.1 21.4 82.5 82.7c6 6 15.7 6 21.7 0l19-19c6-6 6-15.7 0-21.7l-82.4-82.4h-21.7z"/><path class="st3" d="M203.1 453.6c-1.7 1.7-4.6 1.7-6.3 0l-55.2-55.2c-1.7-1.7-1.7-4.6 0-6.3 1.7-1.7 4.6-1.7 6.3 0l55.2 55.2c1.8 1.7 1.8 4.6 0 6.3zM218.5 440c-1.7 1.7-4.6 1.7-6.3 0L157 384.8c-1.7-1.7-1.7-4.6 0-6.3 1.7-1.7 4.6-1.7 6.3 0l55.2 55.2c1.7 1.7 1.7 4.6 0 6.3z"/><path class="st5" d="M118.1 371.1l-76.5-76.5s-15.5 5.5-30.8-30.8l7.1-7.1"/><path class="st5" d="M130.5 358.7L54 282.2s5.5-15.5-30.8-30.8l-7.1 7.1"/><path class="st9" d="M0 0h512v512H0z"/></svg>