<?xml version="1.0" encoding="utf-8"?>
<!-- Generator: Adobe Illustrator 21.0.2, SVG Export Plug-In . SVG Version: 6.00 Build 0)  -->
<svg version="1.1" id="图层_1" xmlns="http://www.w3.org/2000/svg" xmlns:xlink="http://www.w3.org/1999/xlink" x="0px" y="0px"
	 width="512px" height="512px" viewBox="0 0 512 512" style="enable-background:new 0 0 512 512;" xml:space="preserve">
<style type="text/css">
	.st0{fill:#F9D814;}
	.st1{fill:none;stroke:#333333;stroke-width:10.24;stroke-miterlimit:10;}
	.st2{fill:none;stroke:#333333;stroke-width:6.4;stroke-miterlimit:10;}
	.st3{fill:#333333;}
	.st4{fill:none;stroke:#333333;stroke-width:7.68;stroke-miterlimit:10;}
	.st5{fill:none;stroke:#333333;stroke-width:8.96;stroke-miterlimit:10;}
	.st6{fill:none;stroke:#333333;stroke-width:3.84;stroke-miterlimit:10;}
	.st7{fill:none;stroke:#333333;stroke-width:3.84;stroke-linejoin:round;stroke-miterlimit:10;}
	.st8{fill:none;stroke:#333333;stroke-width:10.24;stroke-linejoin:round;stroke-miterlimit:10;}
	.st9{fill:none;}
</style>
<g>
	<g>
		<polygon class="st0" points="82.2,123.6 57.3,123.6 44.8,145.3 57.3,166.9 82.2,166.9 94.7,145.3 		"/>
		<path class="st1" d="M357.4,312.8H166.2c-5.5,0-10-4.5-10-10V48.9c0-5.5,4.5-10,10-10h191.2c5.5,0,10,4.5,10,10v253.9
			C367.4,308.3,362.9,312.8,357.4,312.8z"/>
		<circle class="st0" cx="274.6" cy="209.8" r="64"/>
		<path class="st2" d="M339.3,117H186.8c-2.8,0-5-2.2-5-5V69.5c0-2.8,2.2-5,5-5h152.6c2.8,0,5,2.2,5,5V112
			C344.3,114.7,342.1,117,339.3,117z"/>
		<circle class="st2" cx="259.8" cy="202.1" r="64"/>
		<path class="st3" d="M247.4,104.2h-2c-1.9,0-3.5-1.6-3.5-3.5V80.8c0-1.9,1.6-3.5,3.5-3.5h2c1.9,0,3.5,1.6,3.5,3.5v19.9
			C250.9,102.6,249.3,104.2,247.4,104.2z"/>
		<path class="st3" d="M268,103.5h-2.2c-2.2,0-4-1.8-4-4v-4.8c0-2.2,1.8-4,4-4h2.2c2.2,0,4,1.8,4,4v4.8
			C272,101.7,270.2,103.5,268,103.5z"/>
		<path class="st3" d="M288.5,103.5h-2.2c-2.2,0-4-1.8-4-4V81.9c0-2.2,1.8-4,4-4h2.2c2.2,0,4,1.8,4,4v17.6
			C292.5,101.7,290.7,103.5,288.5,103.5z"/>
		<path class="st3" d="M311.5,103.5h-2.2c-2.2,0-4-1.8-4-4V81.9c0-2.2,1.8-4,4-4h2.2c2.2,0,4,1.8,4,4v17.6
			C315.5,101.7,313.7,103.5,311.5,103.5z"/>
		<path class="st3" d="M229.6,295.5h-27.8c-2.2,0-4-1.8-4-4v-2.2c0-2.2,1.8-4,4-4h27.8c2.2,0,4,1.8,4,4v2.2
			C233.6,293.7,231.8,295.5,229.6,295.5z"/>
		<path class="st3" d="M275.7,295.5h-27.8c-2.2,0-4-1.8-4-4v-2.2c0-2.2,1.8-4,4-4h27.8c2.2,0,4,1.8,4,4v2.2
			C279.7,293.7,277.9,295.5,275.7,295.5z"/>
		<path class="st3" d="M316.6,295.5h-27.8c-2.2,0-4-1.8-4-4v-2.2c0-2.2,1.8-4,4-4h27.8c2.2,0,4,1.8,4,4v2.2
			C320.6,293.7,318.8,295.5,316.6,295.5z"/>
		<path class="st3" d="M275.7,310.9h-2.2c-2.2,0-4,1.8-4,4V353c0,2.2,1.8,4,4,4h2.2c2.2,0,4-1.8,4-4v-38.1
			C279.7,312.7,277.9,310.9,275.7,310.9z"/>
		<path class="st4" d="M235.5,236l-10.8-10.8c-2.5-2.5-2.5-6.6,0-9.1l52.4-52.4c2.5-2.5,6.6-2.5,9.1,0l10.8,10.8
			c2.5,2.5,2.5,6.6,0,9.1L244.5,236C242,238.5,238,238.5,235.5,236z"/>
		<path class="st1" d="M227.2,312.8v25c0,15.5,12.7,28.2,28.2,28.2h124.2c15.5,0,28.2-12.7,28.2-28.2v-119"/>
		<path class="st1" d="M274.6,376.2c0,15.5,12.7,28.2,28.2,28.2h126.7c15.5,0,28.2-12.7,28.2-28.2V221.3"/>
		<rect x="269.4" y="365.9" class="st3" width="10.2" height="11.5"/>
		<path class="st3" d="M408.8,165h-2.2c-2.2,0-4-1.8-4-4v-43.2c0-2.2,1.8-4,4-4h2.2c2.2,0,4,1.8,4,4V161
			C412.8,163.2,411,165,408.8,165z"/>
		<path class="st3" d="M458.7,165h-2.2c-2.2,0-4-1.8-4-4v-43.2c0-2.2,1.8-4,4-4h2.2c2.2,0,4,1.8,4,4V161
			C462.7,163.2,460.9,165,458.7,165z"/>
		<path class="st5" d="M412.9,221.3h-12.4c-2.8,0-5-2.2-5-5v-47.6c0-2.8,2.2-5,5-5h12.4c2.8,0,5,2.2,5,5v47.6
			C417.9,219,415.7,221.3,412.9,221.3z"/>
		<path class="st5" d="M462.8,221.3h-12.4c-2.8,0-5-2.2-5-5v-47.6c0-2.8,2.2-5,5-5h12.4c2.8,0,5,2.2,5,5v47.6
			C467.8,219,465.6,221.3,462.8,221.3z"/>
		<polygon class="st1" points="68.2,121.1 43.2,121.1 30.7,142.7 43.2,164.3 68.2,164.3 80.7,142.7 		"/>
		<circle class="st6" cx="56.3" cy="142.6" r="10.2"/>
		<circle class="st0" cx="476.8" cy="62.6" r="24.3"/>
		<circle class="st1" cx="467.2" cy="54.3" r="24.3"/>
		<polygon class="st7" points="465.4,49.6 468,43.6 470.6,49.6 477.1,48.9 473.2,54.1 477.1,59.3 470.6,58.6 468,64.6 465.4,58.6 
			458.9,59.3 462.7,54.1 458.9,48.9 		"/>
		<g>
			<path class="st0" d="M151.1,354.5l-19,19l-0.1,21.4l82.5,82.7c6,6,15.7,6,21.7,0l19-19c6-6,6-15.7,0-21.7l-82.4-82.4H151.1z"/>
			<path class="st8" d="M134.8,354.5l-19,19l-0.1,21.4l82.5,82.7c6,6,15.7,6,21.7,0l19-19c6-6,6-15.7,0-21.7l-82.4-82.4H134.8z"/>
			<path class="st3" d="M203.1,453.6L203.1,453.6c-1.7,1.7-4.6,1.7-6.3,0l-55.2-55.2c-1.7-1.7-1.7-4.6,0-6.3h0
				c1.7-1.7,4.6-1.7,6.3,0l55.2,55.2C204.9,449,204.9,451.9,203.1,453.6z"/>
			<path class="st3" d="M218.5,440L218.5,440c-1.7,1.7-4.6,1.7-6.3,0l-55.2-55.2c-1.7-1.7-1.7-4.6,0-6.3h0c1.7-1.7,4.6-1.7,6.3,0
				l55.2,55.2C220.2,435.4,220.2,438.3,218.5,440z"/>
			<path class="st5" d="M118.1,371.1l-76.5-76.5c0,0-15.5,5.5-30.8-30.8l7.1-7.1"/>
			<path class="st5" d="M130.5,358.7l-76.5-76.5c0,0,5.5-15.5-30.8-30.8l-7.1,7.1"/>
		</g>
	</g>
	<rect class="st9" width="512" height="512"/>
</g>
</svg>
