<svg xmlns="http://www.w3.org/2000/svg" viewBox="0 0 150 150"><defs><style>.cls-1{fill:#f9f9f9;}.cls-2{fill:#11a8f4;opacity:0.1;}.cls-3{fill:#f9d814;}.cls-4,.cls-5,.cls-6,.cls-8,.cls-9{fill:none;stroke-miterlimit:10;}.cls-4,.cls-6,.cls-8,.cls-9{stroke:#333;}.cls-4,.cls-5,.cls-6,.cls-8{stroke-linecap:round;}.cls-4{stroke-width:3px;}.cls-5{stroke:#fff;}.cls-5,.cls-6{stroke-width:2px;}.cls-7{fill:#333;}.cls-10{fill:#f9a832;opacity:0.6;}</style></defs><title>xiyiji</title><g id="图层_2" data-name="图层 2"><g id="图层_1-2" data-name="图层 1"><circle class="cls-1" cx="75" cy="75" r="75"/><path class="cls-2" d="M113.92,15.3h0a5,5,0,0,0-7.07,0L89.17,33a5,5,0,0,1-7.07,0h0A5,5,0,0,0,75,33L19.87,88.13a5,5,0,0,0,0,7.07h0a5,5,0,0,0,7.07,0L48.16,74a5,5,0,0,1,7.07,0h0a5,5,0,0,1,0,7.07L19.87,116.42a5,5,0,0,0,0,7.07h0a5,5,0,0,0,7.07,0l14.85-14.85a5,5,0,0,1,7.07,0h0a5,5,0,0,1,0,7.07l-6.36,6.36a5,5,0,0,0,0,7.07h0a5,5,0,0,0,7.07,0L63.71,115a5,5,0,0,1,7.07,0h0a5,5,0,0,1,0,7.07L52.4,140.46a5,5,0,0,0,0,7.07h0a5,5,0,0,0,7.07,0l65.76-65.76a5,5,0,0,0,0-7.07h0a5,5,0,0,1,0-7.07l13.44-13.44a5,5,0,0,0,0-7.07h0a5,5,0,0,0-7.07,0L94.12,84.6a5,5,0,0,1-7.07,0h0a5,5,0,0,1,0-7.07l29.7-29.7a5,5,0,0,0,0-7.07h0a5,5,0,0,0-7.07,0L89.17,61.26a5,5,0,0,1-7.07,0h0a5,5,0,0,1,0-7.07l31.82-31.82A5,5,0,0,0,113.92,15.3Z"/><rect class="cls-3" x="49" y="44" width="56" height="66" rx="10" ry="10"/><line class="cls-4" x1="85.25" y1="40" x2="88.75" y2="40"/><path class="cls-4" d="M59,110H55a10,10,0,0,1-10-10V50A10,10,0,0,1,55,40H78.5"/><path class="cls-4" d="M105,86.25V100a10,10,0,0,1-10,10H65"/><line class="cls-4" x1="105" y1="80.65" x2="105" y2="81"/><path class="cls-4" d="M95,40a10,10,0,0,1,10,10V75"/><path class="cls-5" d="M51.5,56.5a10.49,10.49,0,0,1,5.09-9"/><line class="cls-6" x1="65" y1="58" x2="105" y2="58"/><line class="cls-6" x1="45" y1="58" x2="57.83" y2="58"/><circle class="cls-7" cx="94.5" cy="50.5" r="2.5"/><path class="cls-6" d="M60.62,88.3A15,15,0,0,1,79,69.55"/><path class="cls-6" d="M87.72,76A15,15,0,0,1,66.15,96.11"/><path class="cls-6" d="M82.84,71.21a15,15,0,0,1,1.68,1.2"/><path class="cls-8" d="M73.75,80a7.5,7.5,0,0,0-14,3.75"/><path class="cls-9" d="M74.75,83.75"/><path class="cls-8" d="M74.75,83.25a7.5,7.5,0,0,0,15,0"/><rect class="cls-7" x="82" y="48" width="8" height="5" rx="2.5" ry="2.5"/><path class="cls-5" d="M60,46.18A10.56,10.56,0,0,1,62,46"/><path class="cls-10" d="M95.5,106h-7a1.09,1.09,0,0,1-.67-2s4.93-1,7.27-2.78a17.93,17.93,0,0,0,4.11-5,1.09,1.09,0,0,1,1.76.87v3.41A5.51,5.51,0,0,1,95.5,106Z"/></g></g></svg>